<?xml version="1.0" encoding="UTF-8"?><svg xmlns="http://www.w3.org/2000/svg" viewBox="0 0 161.38 161.38"><defs><style>.d{fill:#fff;}</style></defs><g id="a"/><g id="b"><g id="c"><path class="d" d="M80.69,0C36.13,0,0,36.13,0,80.69s36.13,80.69,80.69,80.69,80.69-36.13,80.69-80.69S125.25,0,80.69,0Zm15.32,151.74c.64-.75,1.26-1.52,1.86-2.35,4.39-6.06,7.95-14.2,10.67-23.87,2.71-9.67,4.55-20.86,5.28-32.96,.13-2.21-1.55-4.1-3.75-4.23-2.21-.13-4.1,1.55-4.23,3.75-.53,8.83-1.68,17.13-3.32,24.57-2.45,11.16-6.04,20.41-10.09,26.57-2.02,3.08-4.14,5.37-6.16,6.8-1.01,.72-1.98,1.23-2.92,1.56-.94,.33-1.84,.49-2.76,.49-1.11,0-2.19-.23-3.35-.71-2.01-.84-4.21-2.57-6.39-5.24-3.27-4-6.41-10.06-8.94-17.6-2.26-6.69-4.06-14.53-5.26-23.15,1.27-.12,2.51-.29,3.7-.5,3.98-.73,7.45-1.9,10.24-3.66,1.39-.88,2.64-1.92,3.62-3.27,.49-.67,.91-1.42,1.2-2.25,.3-.83,.47-1.73,.46-2.65,0-1.23-.3-2.42-.8-3.45-.88-1.82-2.25-3.16-3.8-4.26-2.34-1.64-5.22-2.78-8.51-3.6-3.29-.81-6.99-1.25-10.93-1.25-3,0-5.86,.26-8.51,.74-3.98,.73-7.45,1.9-10.24,3.66-1.39,.88-2.64,1.92-3.62,3.27-.49,.67-.91,1.42-1.2,2.25-.3,.83-.47,1.73-.46,2.65,0,1.23,.3,2.42,.8,3.45,.88,1.82,2.25,3.16,3.8,4.26,2.34,1.64,5.22,2.78,8.51,3.6,2.37,.58,4.96,.96,7.69,1.14,.93,6.98,2.24,13.54,3.89,19.52,2.78,10.04,6.45,18.47,11.01,24.66,.52,.7,1.05,1.37,1.59,2.01-32.59-7.17-57.07-36.26-57.07-70.98S32.61,16.71,65.34,9.65c-.72,.83-1.42,1.7-2.09,2.63-4.4,6.08-7.96,14.25-10.67,23.94-2.71,9.7-4.54,20.93-5.26,33.06-.13,2.21,1.55,4.1,3.76,4.23s4.1-1.55,4.23-3.76c.52-8.85,1.67-17.18,3.3-24.64,2.44-11.2,6.04-20.48,10.1-26.66,2.02-3.09,4.15-5.39,6.17-6.83,1.01-.72,1.99-1.23,2.93-1.57,.94-.33,1.85-.49,2.77-.49,1.11,0,2.19,.23,3.35,.71,2,.84,4.21,2.57,6.39,5.24,3.27,4,6.41,10.06,8.94,17.6,2.22,6.58,4.01,14.29,5.21,22.74-1.43,.12-2.83,.31-4.16,.55-3.98,.73-7.45,1.9-10.24,3.66-1.39,.88-2.64,1.92-3.62,3.27-.49,.67-.91,1.42-1.2,2.25-.3,.83-.47,1.73-.46,2.65,0,1.23,.3,2.42,.8,3.45,.88,1.82,2.25,3.16,3.8,4.26,2.34,1.64,5.22,2.78,8.51,3.6,3.29,.81,6.99,1.25,10.93,1.25,3,0,5.86-.26,8.51-.74,3.98-.73,7.45-1.9,10.24-3.66,1.39-.88,2.64-1.92,3.62-3.27,.49-.67,.91-1.42,1.2-2.25,.3-.83,.47-1.73,.46-2.65,0-1.23-.3-2.42-.8-3.45-.88-1.82-2.25-3.16-3.8-4.26-2.34-1.64-5.22-2.78-8.51-3.6-2.23-.55-4.66-.91-7.21-1.1-.93-6.87-2.23-13.31-3.85-19.21-2.78-10.04-6.45-18.46-11.01-24.66-.62-.84-1.26-1.64-1.92-2.39,32.88,6.96,57.63,36.19,57.63,71.11s-24.62,63.99-57.36,71.05Zm-44.2-54.15c-2.54,0-4.94-.22-7.09-.61-3.22-.57-5.86-1.56-7.39-2.55-.77-.48-1.24-.95-1.43-1.21-.07-.09-.1-.15-.12-.19,.02-.05,.06-.13,.18-.27,.25-.32,.83-.84,1.74-1.36,1.35-.78,3.38-1.55,5.81-2.08,2.43-.54,5.27-.85,8.3-.85,2.54,0,4.94,.22,7.09,.61,3.22,.57,5.86,1.56,7.39,2.55,.77,.48,1.24,.95,1.43,1.21,.07,.09,.1,.15,.12,.19-.02,.05-.06,.13-.18,.27-.25,.32-.83,.84-1.74,1.36-1.35,.78-3.38,1.55-5.81,2.08-2.43,.54-5.27,.85-8.3,.85Zm56.99-33.91c2.54,0,4.94,.22,7.09,.61,3.22,.57,5.86,1.56,7.39,2.55,.77,.48,1.24,.95,1.43,1.21,.07,.09,.1,.15,.12,.19-.02,.05-.06,.13-.18,.27-.25,.32-.83,.84-1.74,1.36-1.35,.78-3.38,1.55-5.81,2.08-2.43,.54-5.27,.85-8.3,.85-2.54,0-4.94-.22-7.09-.61-3.22-.57-5.86-1.56-7.39-2.55-.77-.48-1.24-.95-1.43-1.21-.07-.09-.1-.15-.12-.19,.02-.05,.06-.13,.18-.27,.25-.32,.83-.84,1.74-1.36,1.35-.78,3.38-1.55,5.81-2.08,2.43-.54,5.27-.85,8.3-.85Z"/></g></g></svg>